<svg width="155" height="28" viewBox="0 0 155 28" fill="none" xmlns="http://www.w3.org/2000/svg">
<path d="M18.0001 0C10.269 0 4 6.42658 4 14.3544C4 20.6967 8.01144 26.0773 13.5741 27.9753C14.2738 28.1082 14.5307 27.664 14.5307 27.2848C14.5307 26.9425 14.5176 25.8117 14.5117 24.6123C10.6168 25.4806 9.79492 22.9186 9.79492 22.9186C9.15808 21.2594 8.24048 20.8184 8.24048 20.8184C6.97031 19.9274 8.33622 19.9456 8.33622 19.9456C9.7421 20.047 10.4824 21.4249 10.4824 21.4249C11.731 23.6194 13.7575 22.9849 14.5564 22.6183C14.682 21.6904 15.0449 21.0572 15.4452 20.6988C12.3357 20.3357 9.06672 19.1049 9.06672 13.6047C9.06672 12.0376 9.61364 10.757 10.5093 9.75183C10.3639 9.39022 9.88473 7.9303 10.6449 5.95307C10.6449 5.95307 11.8205 5.56726 14.4959 7.42448C15.6126 7.10633 16.8103 6.94692 18.0001 6.94152C19.1898 6.94692 20.3884 7.10633 21.5073 7.42448C24.1795 5.56726 25.3535 5.95307 25.3535 5.95307C26.1155 7.9303 25.6361 9.39022 25.4907 9.75183C26.3883 10.757 26.9315 12.0375 26.9315 13.6047C26.9315 19.118 23.6564 20.332 20.539 20.6873C21.0411 21.1328 21.4885 22.0064 21.4885 23.3455C21.4885 25.2661 21.4723 26.812 21.4723 27.2848C21.4723 27.6668 21.7243 28.1144 22.434 27.9734C27.9936 26.0732 32 20.6945 32 14.3544C32 6.42658 25.7318 0 18.0001 0Z" fill="#161614"/>
<path d="M9.24356 20.4482C9.21282 20.5195 9.10324 20.5408 9.00365 20.492C8.90209 20.4452 8.84499 20.3479 8.87793 20.2763C8.90813 20.2029 9.01771 20.1824 9.11905 20.2317C9.22084 20.2784 9.27881 20.3766 9.24356 20.4482V20.4482ZM9.93223 21.0782C9.86547 21.1417 9.73492 21.1122 9.64631 21.0119C9.55474 20.9118 9.53761 20.778 9.60536 20.7135C9.6742 20.6502 9.8008 20.6798 9.89259 20.78C9.98417 20.8812 10.002 21.0141 9.93212 21.0783L9.93223 21.0782ZM10.4047 21.8843C10.3188 21.9454 10.1785 21.8881 10.0919 21.7604C10.0061 21.6329 10.0061 21.4798 10.0937 21.4184C10.1807 21.357 10.3188 21.4122 10.4067 21.5389C10.4923 21.6687 10.4923 21.8218 10.4046 21.8844L10.4047 21.8843ZM11.2036 22.8179C11.1269 22.9046 10.9635 22.8814 10.8438 22.7629C10.7215 22.6472 10.6873 22.4829 10.7643 22.3961C10.8419 22.3092 11.0063 22.3337 11.1269 22.4511C11.2484 22.5666 11.2855 22.7321 11.2037 22.8179H11.2036ZM12.2362 23.1331C12.2025 23.2454 12.045 23.2966 11.8865 23.2488C11.7281 23.1996 11.6245 23.0679 11.6564 22.9543C11.6894 22.8412 11.8475 22.7879 12.0072 22.839C12.1653 22.888 12.2692 23.0187 12.2363 23.1331H12.2362ZM13.4115 23.2667C13.4154 23.3852 13.2809 23.4833 13.1145 23.4855C12.947 23.4892 12.8116 23.3934 12.8099 23.277C12.8099 23.1574 12.9413 23.0601 13.1086 23.0573C13.2751 23.0539 13.4115 23.1491 13.4115 23.2667V23.2667ZM14.5659 23.2214C14.5859 23.3369 14.4702 23.4555 14.3049 23.487C14.1424 23.5174 13.992 23.4462 13.9712 23.3317C13.951 23.2132 14.0689 23.0947 14.2311 23.064C14.3967 23.0345 14.5448 23.1039 14.5659 23.2214" fill="#161614"/>
<path d="M43.627 18.117C42.8297 18.117 42.236 17.9133 41.846 17.506C41.456 17.0987 41.261 16.5093 41.261 15.738V12.67H40.026V11.656H41.261V9.745H42.574V11.656H44.537V12.67H42.574V15.634C42.574 16.0933 42.6693 16.44 42.86 16.674C43.0593 16.908 43.38 17.025 43.822 17.025C43.9607 17.025 44.095 17.012 44.225 16.986C44.355 16.9513 44.485 16.9123 44.615 16.869L44.823 17.857C44.693 17.935 44.511 17.9957 44.277 18.039C44.0517 18.091 43.835 18.117 43.627 18.117ZM48.5846 18.117C47.5446 18.117 46.7256 17.8267 46.1276 17.246C45.5296 16.6567 45.2306 15.855 45.2306 14.841C45.2306 14.191 45.3606 13.619 45.6206 13.125C45.8892 12.6223 46.2576 12.2323 46.7256 11.955C47.1936 11.6777 47.7309 11.539 48.3376 11.539C49.2129 11.539 49.9019 11.8207 50.4046 12.384C50.9072 12.9387 51.1586 13.7057 51.1586 14.685V15.127H46.5046C46.5999 16.4443 47.2976 17.103 48.5976 17.103C48.9616 17.103 49.3169 17.0467 49.6636 16.934C50.0189 16.8213 50.3526 16.635 50.6646 16.375L51.0546 17.285C50.7686 17.545 50.4002 17.7487 49.9496 17.896C49.4989 18.0433 49.0439 18.117 48.5846 18.117ZM48.3896 12.462C47.8436 12.462 47.4102 12.631 47.0896 12.969C46.7689 13.307 46.5739 13.7577 46.5046 14.321H50.0536C50.0276 13.7317 49.8716 13.2767 49.5856 12.956C49.2996 12.6267 48.9009 12.462 48.3896 12.462ZM52.59 18V11.656H53.864V12.787C54.1933 12.033 54.878 11.6127 55.918 11.526L56.347 11.5L56.438 12.618L55.645 12.696C54.4923 12.8087 53.916 13.4023 53.916 14.477V18H52.59ZM60.3277 18.117C59.2877 18.117 58.4687 17.8267 57.8707 17.246C57.2727 16.6567 56.9737 15.855 56.9737 14.841C56.9737 14.191 57.1037 13.619 57.3637 13.125C57.6324 12.6223 58.0007 12.2323 58.4687 11.955C58.9367 11.6777 59.4741 11.539 60.0807 11.539C60.9561 11.539 61.6451 11.8207 62.1477 12.384C62.6504 12.9387 62.9017 13.7057 62.9017 14.685V15.127H58.2477C58.3431 16.4443 59.0407 17.103 60.3407 17.103C60.7047 17.103 61.0601 17.0467 61.4067 16.934C61.7621 16.8213 62.0957 16.635 62.4077 16.375L62.7977 17.285C62.5117 17.545 62.1434 17.7487 61.6927 17.896C61.2421 18.0433 60.7871 18.117 60.3277 18.117ZM60.1327 12.462C59.5867 12.462 59.1534 12.631 58.8327 12.969C58.5121 13.307 58.3171 13.7577 58.2477 14.321H61.7967C61.7707 13.7317 61.6147 13.2767 61.3287 12.956C61.0427 12.6267 60.6441 12.462 60.1327 12.462ZM64.3332 18V11.656H65.6072V12.709C65.8238 12.3277 66.1185 12.0373 66.4912 11.838C66.8725 11.6387 67.2972 11.539 67.7652 11.539C69.2645 11.539 70.0142 12.3883 70.0142 14.087V18H68.7012V14.165C68.7012 13.619 68.5928 13.2203 68.3762 12.969C68.1682 12.7177 67.8388 12.592 67.3882 12.592C66.8595 12.592 66.4348 12.761 66.1142 13.099C65.8022 13.4283 65.6462 13.866 65.6462 14.412V18H64.3332ZM74.6184 18.117C73.9684 18.117 73.4051 17.9827 72.9284 17.714C72.4604 17.4367 72.0964 17.051 71.8364 16.557C71.5764 16.0543 71.4464 15.465 71.4464 14.789C71.4464 13.7837 71.7324 12.9907 72.3044 12.41C72.8764 11.8293 73.6477 11.539 74.6184 11.539C75.0171 11.539 75.4114 11.6083 75.8014 11.747C76.1914 11.8857 76.5121 12.0763 76.7634 12.319L76.3474 13.242C76.1047 13.0167 75.8361 12.852 75.5414 12.748C75.2554 12.6353 74.9824 12.579 74.7224 12.579C74.1071 12.579 73.6304 12.774 73.2924 13.164C72.9631 13.5453 72.7984 14.0913 72.7984 14.802C72.7984 15.5127 72.9631 16.0717 73.2924 16.479C73.6304 16.8777 74.1071 17.077 74.7224 17.077C74.9824 17.077 75.2554 17.025 75.5414 16.921C75.8361 16.8083 76.1047 16.6393 76.3474 16.414L76.7634 17.35C76.5121 17.584 76.1871 17.7703 75.7884 17.909C75.3984 18.0477 75.0084 18.117 74.6184 18.117ZM80.7418 18.117C79.7018 18.117 78.8828 17.8267 78.2848 17.246C77.6868 16.6567 77.3878 15.855 77.3878 14.841C77.3878 14.191 77.5178 13.619 77.7778 13.125C78.0465 12.6223 78.4148 12.2323 78.8828 11.955C79.3508 11.6777 79.8881 11.539 80.4948 11.539C81.3701 11.539 82.0591 11.8207 82.5618 12.384C83.0645 12.9387 83.3158 13.7057 83.3158 14.685V15.127H78.6618C78.7571 16.4443 79.4548 17.103 80.7548 17.103C81.1188 17.103 81.4741 17.0467 81.8208 16.934C82.1761 16.8213 82.5098 16.635 82.8218 16.375L83.2118 17.285C82.9258 17.545 82.5575 17.7487 82.1068 17.896C81.6561 18.0433 81.2011 18.117 80.7418 18.117ZM80.5468 12.462C80.0008 12.462 79.5675 12.631 79.2468 12.969C78.9261 13.307 78.7311 13.7577 78.6618 14.321H82.2108C82.1848 13.7317 82.0288 13.2767 81.7428 12.956C81.4568 12.6267 81.0581 12.462 80.5468 12.462ZM87.5032 18.117C86.8619 18.117 86.3072 17.9827 85.8392 17.714C85.3712 17.4453 85.0072 17.0683 84.7472 16.583C84.4959 16.089 84.3702 15.504 84.3702 14.828C84.3702 14.152 84.4959 13.5713 84.7472 13.086C85.0072 12.592 85.3712 12.2107 85.8392 11.942C86.3072 11.6733 86.8619 11.539 87.5032 11.539C88.1272 11.539 88.6732 11.6733 89.1412 11.942C89.6092 12.2107 89.9732 12.592 90.2332 13.086C90.4932 13.5713 90.6232 14.152 90.6232 14.828C90.6232 15.504 90.4932 16.089 90.2332 16.583C89.9732 17.0683 89.6092 17.4453 89.1412 17.714C88.6732 17.9827 88.1272 18.117 87.5032 18.117ZM87.5032 17.103C88.0406 17.103 88.4739 16.908 88.8032 16.518C89.1326 16.128 89.2972 15.5647 89.2972 14.828C89.2972 14.0913 89.1326 13.5323 88.8032 13.151C88.4739 12.761 88.0406 12.566 87.5032 12.566C86.9572 12.566 86.5196 12.761 86.1902 13.151C85.8609 13.5323 85.6962 14.0913 85.6962 14.828C85.6962 15.5647 85.8609 16.128 86.1902 16.518C86.5196 16.908 86.9572 17.103 87.5032 17.103ZM94.5158 18.117C93.9611 18.117 93.4715 17.987 93.0468 17.727C92.6308 17.4583 92.3058 17.077 92.0718 16.583C91.8378 16.089 91.7208 15.504 91.7208 14.828C91.7208 14.152 91.8378 13.5713 92.0718 13.086C92.3058 12.592 92.6308 12.2107 93.0468 11.942C93.4628 11.6733 93.9525 11.539 94.5158 11.539C94.9925 11.539 95.4171 11.643 95.7898 11.851C96.1625 12.059 96.4398 12.3407 96.6218 12.696V8.835H97.9348V18H96.6478V16.895C96.4658 17.2763 96.1841 17.5753 95.8028 17.792C95.4301 18.0087 95.0011 18.117 94.5158 18.117ZM94.8538 17.103C95.3911 17.103 95.8245 16.908 96.1538 16.518C96.4831 16.128 96.6478 15.5647 96.6478 14.828C96.6478 14.0913 96.4831 13.5323 96.1538 13.151C95.8245 12.761 95.3911 12.566 94.8538 12.566C94.3078 12.566 93.8701 12.761 93.5408 13.151C93.2115 13.5323 93.0468 14.0913 93.0468 14.828C93.0468 15.5647 93.2115 16.128 93.5408 16.518C93.8701 16.908 94.3078 17.103 94.8538 17.103ZM102.534 18.117C101.893 18.117 101.338 17.9827 100.87 17.714C100.402 17.4453 100.038 17.0683 99.7785 16.583C99.5271 16.089 99.4015 15.504 99.4015 14.828C99.4015 14.152 99.5271 13.5713 99.7785 13.086C100.038 12.592 100.402 12.2107 100.87 11.942C101.338 11.6733 101.893 11.539 102.534 11.539C103.158 11.539 103.704 11.6733 104.172 11.942C104.64 12.2107 105.004 12.592 105.264 13.086C105.524 13.5713 105.654 14.152 105.654 14.828C105.654 15.504 105.524 16.089 105.264 16.583C105.004 17.0683 104.64 17.4453 104.172 17.714C103.704 17.9827 103.158 18.117 102.534 18.117ZM102.534 17.103C103.072 17.103 103.505 16.908 103.834 16.518C104.164 16.128 104.328 15.5647 104.328 14.828C104.328 14.0913 104.164 13.5323 103.834 13.151C103.505 12.761 103.072 12.566 102.534 12.566C101.988 12.566 101.551 12.761 101.221 13.151C100.892 13.5323 100.727 14.0913 100.727 14.828C100.727 15.5647 100.892 16.128 101.221 16.518C101.551 16.908 101.988 17.103 102.534 17.103ZM107.129 18V11.656H108.403V12.709C108.62 12.3277 108.914 12.0373 109.287 11.838C109.668 11.6387 110.093 11.539 110.561 11.539C112.06 11.539 112.81 12.3883 112.81 14.087V18H111.497V14.165C111.497 13.619 111.389 13.2203 111.172 12.969C110.964 12.7177 110.635 12.592 110.184 12.592C109.655 12.592 109.231 12.761 108.91 13.099C108.598 13.4283 108.442 13.866 108.442 14.412V18H107.129ZM117.375 18.117C116.734 18.117 116.179 17.9827 115.711 17.714C115.243 17.4453 114.879 17.0683 114.619 16.583C114.368 16.089 114.242 15.504 114.242 14.828C114.242 14.152 114.368 13.5713 114.619 13.086C114.879 12.592 115.243 12.2107 115.711 11.942C116.179 11.6733 116.734 11.539 117.375 11.539C117.999 11.539 118.545 11.6733 119.013 11.942C119.481 12.2107 119.845 12.592 120.105 13.086C120.365 13.5713 120.495 14.152 120.495 14.828C120.495 15.504 120.365 16.089 120.105 16.583C119.845 17.0683 119.481 17.4453 119.013 17.714C118.545 17.9827 117.999 18.117 117.375 18.117ZM117.375 17.103C117.913 17.103 118.346 16.908 118.675 16.518C119.005 16.128 119.169 15.5647 119.169 14.828C119.169 14.0913 119.005 13.5323 118.675 13.151C118.346 12.761 117.913 12.566 117.375 12.566C116.829 12.566 116.392 12.761 116.062 13.151C115.733 13.5323 115.568 14.0913 115.568 14.828C115.568 15.5647 115.733 16.128 116.062 16.518C116.392 16.908 116.829 17.103 117.375 17.103ZM124.843 20.457C124.271 20.457 123.738 20.3877 123.244 20.249C122.75 20.119 122.312 19.911 121.931 19.625L122.334 18.689C122.715 18.949 123.105 19.1397 123.504 19.261C123.903 19.3823 124.319 19.443 124.752 19.443C125.965 19.443 126.572 18.8363 126.572 17.623V16.622C126.39 17.0033 126.104 17.3023 125.714 17.519C125.333 17.7357 124.904 17.844 124.427 17.844C123.855 17.844 123.357 17.714 122.932 17.454C122.507 17.1853 122.178 16.817 121.944 16.349C121.71 15.8723 121.593 15.3177 121.593 14.685C121.593 14.061 121.71 13.515 121.944 13.047C122.178 12.5703 122.507 12.202 122.932 11.942C123.357 11.6733 123.855 11.539 124.427 11.539C124.912 11.539 125.346 11.6473 125.727 11.864C126.108 12.0807 126.39 12.3797 126.572 12.761V11.656H127.846V17.467C127.846 18.4637 127.59 19.209 127.079 19.703C126.568 20.2057 125.822 20.457 124.843 20.457ZM124.739 16.817C125.294 16.817 125.736 16.6263 126.065 16.245C126.394 15.8637 126.559 15.3437 126.559 14.685C126.559 14.0263 126.394 13.5107 126.065 13.138C125.736 12.7567 125.294 12.566 124.739 12.566C124.184 12.566 123.742 12.7567 123.413 13.138C123.084 13.5107 122.919 14.0263 122.919 14.685C122.919 15.3437 123.084 15.8637 123.413 16.245C123.742 16.6263 124.184 16.817 124.739 16.817ZM129.689 18V8.835H131.002V12.644C131.218 12.28 131.509 12.007 131.873 11.825C132.245 11.6343 132.661 11.539 133.121 11.539C134.62 11.539 135.37 12.3883 135.37 14.087V18H134.057V14.165C134.057 13.619 133.948 13.2203 133.732 12.969C133.524 12.7177 133.194 12.592 132.744 12.592C132.215 12.592 131.79 12.761 131.47 13.099C131.158 13.4283 131.002 13.866 131.002 14.412V18H129.689ZM139.441 18.117C137.907 18.117 137.14 17.2633 137.14 15.556V11.656H138.453V15.569C138.453 16.0803 138.557 16.4573 138.765 16.7C138.973 16.9427 139.302 17.064 139.753 17.064C140.247 17.064 140.646 16.8993 140.949 16.57C141.261 16.2407 141.417 15.7987 141.417 15.244V11.656H142.73V18H141.456V16.986C141.248 17.3587 140.971 17.6403 140.624 17.831C140.277 18.0217 139.883 18.117 139.441 18.117ZM147.557 18.117C146.517 18.117 145.698 17.8267 145.1 17.246C144.502 16.6567 144.203 15.855 144.203 14.841C144.203 14.191 144.333 13.619 144.593 13.125C144.862 12.6223 145.23 12.2323 145.698 11.955C146.166 11.6777 146.704 11.539 147.31 11.539C148.186 11.539 148.875 11.8207 149.377 12.384C149.88 12.9387 150.131 13.7057 150.131 14.685V15.127H145.477C145.573 16.4443 146.27 17.103 147.57 17.103C147.934 17.103 148.29 17.0467 148.636 16.934C148.992 16.8213 149.325 16.635 149.637 16.375L150.027 17.285C149.741 17.545 149.373 17.7487 148.922 17.896C148.472 18.0433 148.017 18.117 147.557 18.117ZM147.362 12.462C146.816 12.462 146.383 12.631 146.062 12.969C145.742 13.307 145.547 13.7577 145.477 14.321H149.026C149 13.7317 148.844 13.2767 148.558 12.956C148.272 12.6267 147.874 12.462 147.362 12.462Z" fill="black"/>
</svg>
