<svg width="16" height="16" viewBox="0 0 16 16" fill="none" xmlns="http://www.w3.org/2000/svg">
<path fill-rule="evenodd" clip-rule="evenodd" d="M14.4441 5.28843C14.0735 4.42261 13.5767 3.67666 12.9537 3.05087C12.3311 2.42502 11.5866 1.92664 10.7206 1.556C9.85503 1.18535 8.94792 1 8.00011 1C7.05221 1 6.14526 1.18545 5.27937 1.556C4.41344 1.92664 3.66906 2.42492 3.04627 3.05087C2.42345 3.67666 1.92661 4.42261 1.55597 5.28843C1.18535 6.15433 1 7.06434 1 8.01824C1 8.97218 1.18535 9.88367 1.55597 10.7525C1.92671 11.6216 2.42342 12.3688 3.04627 12.9948C3.66906 13.6207 4.41344 14.1191 5.27937 14.4894C6.14526 14.8602 7.05217 15.0456 8.00011 15.0456C8.94805 15.0456 9.85503 14.8602 10.7206 14.4894C11.5866 14.1189 12.3311 13.6207 12.9537 12.9948C13.5767 12.3688 14.0734 11.6216 14.4441 10.7525C14.8148 9.88363 15 8.97215 15 8.01824C14.9999 7.06434 14.8148 6.15433 14.4441 5.28843ZM3.85288 10.7433C3.31208 9.91118 3.04168 9.00242 3.0418 8.01812C3.0418 7.1189 3.26365 6.28643 3.70721 5.52075C4.15067 4.75513 4.75236 4.15058 5.51181 3.70686C6.27133 3.2633 7.10076 3.04158 8.00011 3.04158C9.0029 3.04158 9.91406 3.31808 10.7345 3.87101L3.85288 10.7433ZM12.5662 9.95521C12.3049 10.5719 11.9527 11.1022 11.5091 11.5458C11.0654 11.9894 10.5383 12.3433 9.92759 12.6074C9.31687 12.8716 8.67426 13.004 7.99992 13.004C7.02775 13.004 6.1254 12.7337 5.2929 12.1927L12.1654 5.32936C12.6943 6.1436 12.9584 7.03992 12.9584 8.01815C12.9582 8.69272 12.8275 9.3383 12.5662 9.95521Z" fill="#2E5BFF"/>
</svg>
