<svg width="16" height="16" viewBox="0 0 16 16" fill="none" xmlns="http://www.w3.org/2000/svg">
<path fill-rule="evenodd" clip-rule="evenodd" d="M3.85359 12.743C4.27469 13.6729 5.33509 13.6254 5.67338 12.6576L7.28429 8.04873L9.00506 13.2109C9.35805 14.2698 10.5111 14.1829 10.6958 13.0747L12.1165 4.55053L13.6738 7.6651C13.8467 8.01088 14.2671 8.15104 14.6129 7.97815C14.9587 7.80526 15.0988 7.3848 14.9259 7.03902L12.7201 2.62723C12.2465 1.68013 11.1496 1.83611 10.9741 2.88936L9.66279 10.757L8.18487 6.32341C7.84908 5.31606 6.75308 5.32559 6.40665 6.31672L4.69627 11.2102L4.02652 9.73123C3.63638 8.86973 2.62733 8.80537 2.14347 9.62784L1.09677 11.407C0.900747 11.7402 1.01196 12.1693 1.34516 12.3653C1.67837 12.5613 2.1074 12.4501 2.30342 12.1169L3.01913 10.9003L3.85359 12.743Z" fill="#2E5BFF"/>
</svg>
