<svg width="16" height="16" viewBox="0 0 16 16" fill="none" xmlns="http://www.w3.org/2000/svg">
<path fill-rule="evenodd" clip-rule="evenodd" d="M13.3952 6.03461C13.2907 5.81019 13.0657 5.66667 12.8182 5.66667H9.31075L11.6581 1.97801C11.7828 1.78205 11.7908 1.53374 11.679 1.33015C11.5673 1.12655 11.3535 1 11.1212 1H7.30303C7.07593 1 6.86606 1.12099 6.75232 1.3175L2.08565 9.37811C1.97166 9.575 1.97144 9.81771 2.08506 10.0148C2.19871 10.2119 2.40888 10.3333 2.63636 10.3333H6.46986L5.41633 14.1962C5.33772 14.4844 5.47017 14.7884 5.73469 14.9272C5.82836 14.9763 5.92967 15 6.03 15C6.21298 15 6.39281 14.9211 6.51703 14.7735L13.3049 6.71289C13.4644 6.52359 13.4996 6.25899 13.3952 6.03461ZM7.40438 11.744L7.91699 9.86442C7.96917 9.67309 7.92916 9.46835 7.80876 9.3107C7.68836 9.15309 7.50136 9.06061 7.30303 9.06061H3.74011L7.66995 2.27273H9.96196L7.61463 5.96139C7.48999 6.15735 7.48193 6.40565 7.59367 6.60929C7.70546 6.81284 7.91928 6.93939 8.15151 6.93939H11.4504L7.40438 11.744Z" fill="#2E5BFF"/>
</svg>
