<svg width="16" height="16" viewBox="0 0 16 16" fill="none" xmlns="http://www.w3.org/2000/svg">
<path fill-rule="evenodd" clip-rule="evenodd" d="M4.77579 7.92228C4.77579 6.18731 6.18731 4.77579 7.92228 4.77579C9.65726 4.77579 11.0688 6.18731 11.0688 7.92228H12.3274C12.3274 5.49319 10.3507 3.51719 7.92228 3.51719C5.49382 3.51719 3.51719 5.49319 3.51719 7.92228C3.51719 10.8265 5.08415 13.5381 7.607 15L8.23756 13.9107C6.10235 12.6735 4.77579 10.3791 4.77579 7.92228ZM14.8446 7.92228C14.8446 9.65726 13.433 11.0688 11.6981 11.0688C9.9631 11.0688 8.55158 9.65726 8.55158 7.92228C8.55158 7.57554 8.26965 7.29298 7.92228 7.29298C7.57491 7.29298 7.29298 7.57554 7.29298 7.92228C7.29298 10.3514 9.26961 12.3274 11.6981 12.3274V13.586C8.57486 13.586 6.03439 11.0449 6.03439 7.92228C6.03439 6.88142 6.88142 6.03439 7.92228 6.03439C8.96314 6.03439 9.81018 6.88142 9.81018 7.92228C9.81018 8.96314 10.6572 9.81018 11.6981 9.81018C12.7389 9.81018 13.586 8.96314 13.586 7.92228C13.586 4.7997 11.0455 2.2586 7.92228 2.2586C4.79907 2.2586 2.2586 4.7997 2.2586 7.92228C2.2586 9.55028 2.68715 11.1619 3.49706 12.5835L2.40271 13.2065C1.48519 11.5955 1 9.76801 1 7.92228C1 4.10559 4.10559 1 7.92228 1C11.739 1 14.8446 4.10559 14.8446 7.92228Z" fill="#2E5BFF"/>
</svg>
