<svg width="30" height="30" viewBox="0 0 30 30" fill="none" xmlns="http://www.w3.org/2000/svg">
<path d="M15 0C6.71631 0 0 6.71631 0 15C0 21.6284 4.2975 27.2498 10.2585 29.2328C11.0083 29.3701 11.2821 28.9068 11.2821 28.5113C11.2821 28.1543 11.2683 26.9714 11.261 25.719C7.08984 26.6254 6.20818 23.9502 6.20818 23.9502C5.52522 22.218 4.54283 21.7566 4.54283 21.7566C3.17962 20.8264 4.64625 20.8447 4.64625 20.8447C6.15229 20.9491 6.94518 22.3901 6.94518 22.3901C8.28369 24.6826 10.4571 24.0198 11.3104 23.6353C11.4468 22.6685 11.8349 22.0056 12.2626 21.6321C8.93279 21.2531 5.43 19.9658 5.43 14.2181C5.43 12.5793 6.01503 11.2427 6.97266 10.1926C6.81976 9.8117 6.3034 8.28551 7.12096 6.22102C7.12096 6.22102 8.37891 5.81818 11.2463 7.7591C12.442 7.42494 13.7246 7.26015 15 7.25464C16.2744 7.26015 17.5579 7.42676 18.7555 7.76092C21.6174 5.81818 22.8772 6.22283 22.8772 6.22283C23.6975 8.28917 23.1812 9.81352 23.0273 10.1926C23.9886 11.2427 24.5691 12.5793 24.5691 14.2181C24.5691 19.9805 21.0608 21.2494 17.7191 21.6211C18.2593 22.0862 18.7372 22.998 18.7372 24.397C18.7372 26.402 18.717 28.0188 18.717 28.5132C18.717 28.9124 18.9899 29.3793 19.7498 29.2328C25.7062 27.2461 30 21.6248 30 15C30 6.71631 23.2837 0 15 0Z" fill="black"/>
</svg>
