<svg width="30" height="30" viewBox="0 0 30 30" fill="none" xmlns="http://www.w3.org/2000/svg">
<path d="M25.4616 19.8527C25.4616 19.8527 24.6947 21.6024 23.8099 21.9165C22.9251 22.2305 22.1613 21.5575 23.6281 18.2378C25.0952 14.9176 24.27 12.0461 23.3533 11.1488C22.4361 10.2515 19.961 9.98237 18.5858 10.79C17.2103 11.5975 16.2892 12.7419 16.2892 12.7419L16.7316 10.3414L11.3429 10.431L10.5177 13.3921H12.9012C12.9012 13.3921 10.7009 19.911 10.5177 20.0613C10.3345 20.2117 8.76846 21.3825 8.10487 21.6024C7.44127 21.8227 6.66708 22.0063 7.03386 20.5707C7.40065 19.1351 9.60095 10.3414 9.60095 10.3414H3.5491L3 13.2126V13.3921H5.20035C5.20035 13.3921 3.45971 20.2117 3.3668 21.0192C3.27349 21.827 3.45971 23.4964 6.11408 23.9803C8.76846 24.4646 10.7009 21.9165 10.7009 21.9165L10.3345 23.9803H13.8184C13.8184 23.9803 15.6256 16.9447 16.2892 15.3963C16.9528 13.8479 19.1648 12.494 20.2708 13.3921C21.3768 14.2903 20.8778 15.7251 20.4194 16.8916C19.961 18.058 18.9436 21.1475 19.8284 22.6959C20.7132 24.2442 23.6281 24.9078 25.2784 22.9936C26.4643 21.6024 26.9067 20.2627 26.9067 20.2627L25.4616 19.8527Z" fill="#FF427A"/>
<path d="M7.88384 8.53917C8.86116 8.53917 9.65343 7.7469 9.65343 6.76959C9.65343 5.79227 8.86116 5 7.88384 5C6.90653 5 6.11426 5.79227 6.11426 6.76959C6.11426 7.7469 6.90653 8.53917 7.88384 8.53917Z" fill="#FF427A"/>
</svg>
