<svg width="16" height="16" viewBox="0 0 16 16" fill="none" xmlns="http://www.w3.org/2000/svg">
<path fill-rule="evenodd" clip-rule="evenodd" d="M7.52632 12.4933C7.52632 12.4933 3.57895 7.6941 3.57895 5.53017C3.57895 3.36624 5.34624 1.61203 7.52632 1.61203C9.70639 1.61203 11.4737 3.36624 11.4737 5.53017C11.4737 7.6941 7.52632 12.4933 7.52632 12.4933ZM6.31716 13.5299L7.52632 15L8.73547 13.5299C8.77144 13.4862 8.83447 13.4084 8.92075 13.3001C9.06207 13.1228 9.2189 12.9222 9.38746 12.7019C9.86893 12.0725 10.3505 11.4078 10.8025 10.7344C11.1286 10.2485 11.4277 9.775 11.6941 9.31811C12.5605 7.83224 13.0526 6.60777 13.0526 5.53017C13.0526 2.46562 10.5686 0 7.52632 0C4.48401 0 2 2.46562 2 5.53017C2 6.60777 2.4921 7.83224 3.35852 9.31811C3.62494 9.775 3.92402 10.2485 4.25015 10.7344C4.70211 11.4078 5.1837 12.0725 5.66517 12.7019C5.83373 12.9222 5.99057 13.1228 6.13189 13.3001C6.21816 13.4084 6.28119 13.4862 6.31716 13.5299ZM7.52632 3.15789C6.21827 3.15789 5.15789 4.21827 5.15789 5.52632C5.15789 6.83436 6.21827 7.89474 7.52632 7.89474C8.83436 7.89474 9.89474 6.83436 9.89474 5.52632C9.89474 4.21827 8.83436 3.15789 7.52632 3.15789ZM7.52632 4.73684C7.96233 4.73684 8.31579 5.0903 8.31579 5.52632C8.31579 5.96233 7.96233 6.31579 7.52632 6.31579C7.0903 6.31579 6.73684 5.96233 6.73684 5.52632C6.73684 5.0903 7.0903 4.73684 7.52632 4.73684Z" fill="#2E5BFF"/>
</svg>
