<svg width="30" height="30" viewBox="0 0 30 30" fill="none" xmlns="http://www.w3.org/2000/svg">
<path d="M27 8.68334H26.0903C25.7526 8.68334 25.275 9.17052 25.275 9.48242L25.275 20.7871C25.275 21.0994 25.7526 21.525 26.0903 21.525H27V24.2083H18.7583V21.525L20.4833 21.525L20.4833 9.64168H20.3988L16.3706 24.2083H13.2519L9.27562 9.64168H9.175L9.175 21.525H10.9V24.2083H4L4 21.525H4.88354C5.2474 21.525 5.725 21.0994 5.725 20.7871L5.725 9.48242C5.725 9.17052 5.2474 8.68334 4.88354 8.68334H4L4 6.00001H12.6281L15.4609 16.5417H15.5389L18.3978 6.00001L27 6.00001V8.68334Z" fill="#231F20"/>
</svg>
