<svg width="16" height="16" viewBox="0 0 16 16" fill="none" xmlns="http://www.w3.org/2000/svg">
<path fill-rule="evenodd" clip-rule="evenodd" d="M3.43478 8.30435H9.52174V7.08696H3.43478V8.30435ZM3.43478 5.86957H11.9565V4.65217H3.43478V5.86957ZM13.1739 10.7391H10.1304V13.7211C8.74322 13.4387 7.69565 12.2091 7.69565 10.7391H2.21739V2.21739H13.1739V10.7391ZM13.1739 1H2.21739C1.546 1 1 1.546 1 2.21739V10.7391C1 11.4105 1.546 11.9565 2.21739 11.9565H6.65539C7.1807 13.7144 8.81261 15 10.7391 15H11.3478V11.9565H13.1739C13.8453 11.9565 14.3913 11.4105 14.3913 10.7391V2.21739C14.3913 1.546 13.8453 1 13.1739 1Z" fill="#2E5BFF"/>
</svg>
