<svg width="30" height="30" viewBox="0 0 30 30" fill="none" xmlns="http://www.w3.org/2000/svg">
<path d="M18.2622 5.36111C17.9279 4.33198 16.8227 3.76881 15.7937 4.10332C14.7646 4.43765 14.2014 5.54288 14.5359 6.57183L19.6017 22.1579C19.9496 23.1193 20.9881 23.6595 21.9849 23.3726C23.0247 23.0733 23.6585 21.9689 23.3267 20.9478C23.3141 20.9088 18.2622 5.36111 18.2622 5.36111Z" fill="#DFA22F"/>
<path d="M10.4128 7.9115C10.0783 6.88255 8.97307 6.31939 7.94412 6.65371C6.91499 6.98804 6.35182 8.09327 6.68633 9.1224L11.7521 24.7085C12.1 25.6698 13.1385 26.2101 14.1353 25.923C15.1751 25.6238 15.8089 24.5195 15.4771 23.4981C15.4645 23.4594 10.4128 7.9115 10.4128 7.9115Z" fill="#3CB187"/>
<path d="M24.6392 18.2695C25.6683 17.9352 26.2313 16.83 25.897 15.8008C25.5626 14.7719 24.4574 14.2087 23.4285 14.5431L7.84237 19.609C6.88104 19.9567 6.34078 20.9952 6.62768 21.992C6.92703 23.0318 8.03135 23.6657 9.05255 23.3339C9.0915 23.3212 24.6392 18.2695 24.6392 18.2695Z" fill="#CE1E5B"/>
<path d="M11.0906 22.6717C12.1051 22.342 13.4127 21.9172 14.8158 21.4613C14.4862 20.4468 14.0613 19.1391 13.6053 17.7357L9.87988 18.9466L11.0906 22.6717Z" fill="#392538"/>
<path d="M18.9404 20.1211C20.3488 19.6636 21.6578 19.2382 22.6656 18.9108C22.336 17.8962 21.9109 16.5882 21.4549 15.1845L17.7295 16.3954L18.9404 20.1211Z" fill="#BB242A"/>
<path d="M22.0885 10.42C23.1174 10.0857 23.6806 8.98049 23.3463 7.95136C23.0119 6.92241 21.9067 6.35924 20.8776 6.69357L5.29149 11.7595C4.33016 12.1072 3.7899 13.1457 4.07698 14.1426C4.37615 15.1823 5.48047 15.8162 6.50185 15.4844C6.54062 15.4718 22.0885 10.42 22.0885 10.42Z" fill="#72C5CD"/>
<path d="M8.53903 14.8224C9.55355 14.4927 10.8615 14.0677 12.2648 13.6118C11.8073 12.2033 11.3819 10.8943 11.0544 9.88626L7.32812 11.0973L8.53903 14.8224Z" fill="#248C73"/>
<path d="M16.3886 12.272C17.7974 11.8143 19.1065 11.3889 20.1146 11.0613C19.6569 9.65257 19.2315 8.3432 18.9038 7.33499L15.1777 8.54607L16.3886 12.272Z" fill="#62803A"/>
</svg>
