<svg width="30" height="30" viewBox="0 0 30 30" fill="none" xmlns="http://www.w3.org/2000/svg">
<path d="M10.8929 25.2656C20.2646 25.2656 25.3893 17.5016 25.3893 10.7692C25.3893 10.5487 25.3848 10.3292 25.3749 10.1107C26.3697 9.39147 27.2344 8.49399 27.9163 7.47233C27.0035 7.87811 26.021 8.15128 24.9905 8.27446C26.0424 7.64369 26.85 6.64587 27.2309 5.45634C26.2465 6.03993 25.1563 6.46409 23.9956 6.69306C23.0659 5.70269 21.7422 5.08334 20.2765 5.08334C17.4629 5.08334 15.1812 7.36505 15.1812 10.1777C15.1812 10.5775 15.2259 10.9664 15.3133 11.3394C11.0787 11.1263 7.32384 9.09893 4.81118 6.01609C4.37361 6.76905 4.12131 7.64369 4.12131 8.57693C4.12131 10.3446 5.02078 11.9051 6.38861 12.818C5.55271 12.7922 4.76747 12.5627 4.08107 12.1808C4.08032 12.2022 4.08032 12.223 4.08032 12.2458C4.08032 14.7133 5.83656 16.7735 8.16793 17.2404C7.7398 17.3571 7.28932 17.4197 6.82444 17.4197C6.49663 17.4197 6.17727 17.3874 5.86685 17.3278C6.51551 19.3522 8.3964 20.8253 10.6265 20.8666C8.88264 22.2334 6.68586 23.0475 4.29836 23.0475C3.88762 23.0475 3.48184 23.0241 3.08301 22.9769C5.3379 24.4222 8.01545 25.2656 10.8932 25.2656" fill="#1DA1F2"/>
</svg>
